<svg width="17" height="16" viewBox="0 0 17 16" fill="none" xmlns="http://www.w3.org/2000/svg">
<path d="M0 0.997137C0 0.595681 0.3185 0.272705 0.714391 0.272705H2.06876C2.72362 0.272705 3.30406 0.659069 3.57493 1.23861H15.8089C16.5917 1.23861 17.1633 1.99323 16.9579 2.75992L15.7374 7.35704C15.4844 8.30484 14.6361 8.96589 13.6687 8.96589H5.08111L5.24185 9.82615C5.30733 10.1672 5.60202 10.4148 5.94433 10.4148H14.526C14.9219 10.4148 15.2404 10.7377 15.2404 11.1392C15.2404 11.5406 14.9219 11.8636 14.526 11.8636H5.94433C4.91442 11.8636 4.03036 11.1211 3.83985 10.0978L2.30391 1.91777C2.28308 1.80307 2.18485 1.72157 2.06876 1.72157H0.714391C0.3185 1.72157 0 1.39859 0 0.997137ZM3.81009 14.2784C3.81009 14.0881 3.84704 13.8997 3.91885 13.7239C3.99065 13.5481 4.09589 13.3884 4.22857 13.2539C4.36124 13.1193 4.51875 13.0126 4.6921 12.9398C4.86545 12.867 5.05124 12.8295 5.23887 12.8295C5.4265 12.8295 5.61229 12.867 5.78564 12.9398C5.95899 13.0126 6.1165 13.1193 6.24917 13.2539C6.38185 13.3884 6.48709 13.5481 6.55889 13.7239C6.6307 13.8997 6.66765 14.0881 6.66765 14.2784C6.66765 14.4687 6.6307 14.6571 6.55889 14.8328C6.48709 15.0086 6.38185 15.1683 6.24917 15.3029C6.1165 15.4374 5.95899 15.5441 5.78564 15.617C5.61229 15.6898 5.4265 15.7273 5.23887 15.7273C5.05124 15.7273 4.86545 15.6898 4.6921 15.617C4.51875 15.5441 4.36124 15.4374 4.22857 15.3029C4.09589 15.1683 3.99065 15.0086 3.91885 14.8328C3.84704 14.6571 3.81009 14.4687 3.81009 14.2784ZM13.8116 12.8295C14.1905 12.8295 14.5539 12.9822 14.8219 13.2539C15.0898 13.5256 15.2404 13.8941 15.2404 14.2784C15.2404 14.6626 15.0898 15.0312 14.8219 15.3029C14.5539 15.5746 14.1905 15.7273 13.8116 15.7273C13.4326 15.7273 13.0692 15.5746 12.8013 15.3029C12.5333 15.0312 12.3828 14.6626 12.3828 14.2784C12.3828 13.8941 12.5333 13.5256 12.8013 13.2539C13.0692 12.9822 13.4326 12.8295 13.8116 12.8295Z" fill="white"/>
</svg>
